<svg width="1000" height="1000" viewBox="0 0 1000 1000" fill="none" xmlns="http://www.w3.org/2000/svg">
<mask id="mask0_2527_2" style="mask-type:alpha" maskUnits="userSpaceOnUse" x="88" y="170" width="824" height="660">
<path d="M99.3332 705.424C115.609 683.108 131.535 661.059 147.727 639.208C151.207 634.511 151.969 630.282 150.181 624.589C142.575 600.363 138.88 575.475 140.608 550.094C141.5 536.999 144.135 524.032 145.599 510.964C147.611 493.006 149.305 475.011 151.038 457.023C151.679 450.371 151.652 443.636 152.612 437.038C155.699 415.813 176.398 401.997 198.069 406.111C206.776 407.763 214.411 411.581 222.236 416.983C226.816 408.881 231.178 401.244 235.467 393.566C251.613 364.655 267.429 335.553 283.975 306.873C295.146 287.511 319.729 281.345 337.908 292.577C341.206 294.615 344.041 297.401 347.403 300.091C352.83 294.56 358.721 289.727 366.345 287.549C388.226 281.3 409.037 294.445 414.752 318.185C415.211 320.094 416.173 322.149 415.839 323.938C414.102 333.235 419.106 336.129 427.02 339.41C443.787 346.363 449.336 361.641 451.524 378.386C452.728 387.599 449.988 395.893 445.255 403.686C444.15 405.507 442.814 407.28 442.714 409.456C443.308 411.021 444.728 411.41 445.881 412.112C466.823 424.852 474.485 446.404 464.943 469.145C448.254 508.918 430.89 548.408 413.823 588.023C403.297 612.456 392.605 636.792 378.489 659.469C361.263 687.142 337.782 707.898 308.975 722.823C305.677 724.531 303.322 726.843 301.308 729.883C280.842 760.775 260.29 791.609 239.781 822.471C236.505 827.402 232.298 830.746 226.055 829.857C220.64 829.085 217.406 825.485 215.638 820.487C213.995 815.843 216.04 812.047 218.517 808.359C233.569 785.949 248.639 763.551 263.654 741.117C269.571 732.277 275.377 723.364 281.208 714.467C284.384 709.621 287.959 704.89 293.306 702.587C334.309 684.919 357.598 651.358 375.284 612.517C392.92 573.786 409.005 534.393 425.909 495.349C431.31 482.876 436.732 470.404 441.728 457.767C446.497 445.705 442.737 437.84 430.433 432.927C428.166 434.058 427.556 436.486 426.478 438.498C413.071 463.511 399.718 488.553 386.336 513.579C384.943 516.185 383.592 518.83 381.983 521.302C377.691 527.899 370.824 529.898 364.663 526.492C358.466 523.067 356.165 516.196 359.318 509.162C361.732 503.777 364.629 498.601 367.424 493.393C385.318 460.046 403.268 426.729 421.139 393.37C424.405 387.272 427.683 381.121 424.749 373.787C422.639 368.51 419.529 364.478 413.43 363.91C407.329 363.341 403.394 366.463 400.641 371.605C385.568 399.752 370.499 427.901 355.347 456.005C349.923 466.064 344.335 476.036 338.702 485.98C333.688 494.832 326.88 497.489 319.854 493.55C312.918 489.662 311.466 482.079 316.103 473.423C337.137 434.155 358.239 394.923 379.206 355.62C383.088 348.342 387.551 341.301 389.574 333.141C391.362 325.931 387.486 317.503 381.068 314.884C373.82 311.927 367.021 314.783 363.017 322.795C338.784 371.287 311.408 418.102 286.333 466.145C282.119 474.219 275.142 476.986 268.346 473.647C261.366 470.217 258.946 462.347 263.18 454.371C279.817 423.034 296.691 391.823 313.464 360.559C318.31 351.527 323.24 342.536 327.9 333.409C331.967 325.446 330.478 319.03 324.124 315.441C317.6 311.758 309.838 314.176 305.574 321.745C291.546 346.643 277.711 371.65 263.776 396.6C254.455 413.291 245.186 430.012 235.689 446.603C232.481 452.206 234.04 458.24 233.927 463.896C233.62 479.267 232.493 494.589 231.9 509.936C231.579 518.247 234.215 523.676 241.533 528.345C267.774 545.085 280.581 570.249 284.361 600.452C285.124 606.554 284.428 612.732 280.399 617.875C277.404 621.697 273.436 623.918 268.494 622.715C263.928 621.604 261.276 618.325 259.896 613.811C257.903 607.29 259.126 600.547 258.06 593.894C254.142 569.46 240.235 552.443 218.938 541.56C209.451 536.712 206.57 530.12 206.675 520.417C206.902 499.341 209.688 478.374 209.135 457.271C208.979 451.291 208.198 445.443 205.451 440.111C202.142 433.689 197.003 429.827 189.379 430.118C182.766 430.371 178.68 433.856 177.937 440.517C176.63 452.237 175.31 463.966 174.49 475.725C173.122 495.333 170.872 514.836 168.64 534.356C165.329 563.316 165.429 592.214 175.086 620.137C179.044 631.582 177.047 640.782 170.08 650.335C150.334 677.405 131.175 704.901 111.696 732.166C106.55 739.369 99.5913 740.737 93.3524 736.16C87.3492 731.756 86.247 723.934 90.8026 717.29C93.4771 713.39 96.3147 709.601 99.3332 705.424Z" fill="white"/>
<path d="M768.636 467.167C747.835 430.384 728.778 393.169 709.532 356.054C707.018 351.206 704.099 346.97 698.677 344.939C694.173 343.252 690.044 343.577 686.613 346.972C683.217 350.332 683.454 354.603 685.221 358.542C688.042 364.833 691.307 370.926 694.405 377.093C707.6 403.36 720.805 429.623 733.998 455.892C734.883 457.654 735.787 459.414 736.538 461.234C739.412 468.201 737.492 474.491 731.625 477.537C725.736 480.594 719.537 478.545 715.949 471.472C705.782 451.43 695.951 431.219 685.971 411.082C676.338 391.645 666.71 372.205 657.013 352.799C655.429 349.631 653.709 346.489 651.69 343.586C647.087 336.969 641.675 335.179 636.105 338.116C630.426 341.111 627.094 349.142 629.434 355.42C631.284 360.386 633.663 365.177 636.072 369.912C653.331 403.833 668.971 438.553 686.721 472.232C688.272 475.176 689.786 478.167 690.466 481.519C691.567 486.941 689.393 490.919 684.858 493.397C680.478 495.79 676.094 495.141 672.289 491.683C670.205 489.79 668.772 487.465 667.535 484.967C648.368 446.262 629.175 407.57 610.015 368.862C606.657 362.08 601.871 358.934 596.243 360.004C590.832 361.032 586.445 366.913 585.83 373.589C585.361 378.683 586.517 383.36 588.769 387.855C604.936 420.12 621.099 452.387 637.268 484.651C640.626 491.351 644.144 497.976 647.335 504.755C650.873 512.27 649.262 518.595 643.368 521.646C637.257 524.81 630.502 522.381 626.688 514.983C613.138 488.696 599.8 462.301 586.364 435.956C583.498 430.336 580.633 424.713 577.62 419.171C575.912 416.028 575.011 411.788 569.732 412.845C564.11 413.971 559.419 418.168 558.718 423.064C558.106 427.337 559.471 431.21 561.096 435.074C577.214 473.404 593.224 511.78 609.407 550.083C622.135 580.213 633.793 610.836 650.155 639.315C662.503 660.806 678.513 678.578 701.071 689.846C711.057 694.833 718.765 702.443 724.351 712.009C742.753 743.52 761.004 775.118 779.294 806.694C782.264 811.822 782.972 817.122 779.567 822.299C776.722 826.626 772.285 827.459 767.516 826.799C762.437 826.096 759.858 822.227 757.591 818.254C743.221 793.073 728.915 767.857 714.595 742.648C713.718 741.105 712.925 739.515 712.045 737.974C706.171 727.689 699.765 718.578 688.626 712.355C660.417 696.591 640.764 672.295 625.49 644.244C612.357 620.127 602.297 594.624 591.547 569.43C574.143 528.646 556.722 487.87 539.268 447.108C535.406 438.091 532.846 428.85 534.523 418.973C536.832 405.372 544.947 396.364 557.421 390.978C559.217 390.203 561.016 389.431 563.279 388.458C560.654 379.037 561.404 369.78 564.746 360.713C570.889 344.048 586.734 333.727 604.443 335.098C606.937 335.291 608.837 335.17 609.703 332.683C618.435 307.619 652.533 304.606 667.746 327.651C667.847 327.803 668.064 327.88 668.352 328.079C670.832 328.007 672.336 325.919 674.313 324.761C691.446 314.73 716.464 317.739 727.508 339.57C741.841 367.902 756.724 395.957 771.384 424.124C772.55 426.363 773.828 428.543 775.317 431.224C780.817 425.067 786.052 419.539 792.937 415.892C818.186 402.519 843.94 415.726 848.002 444.005C852.804 477.443 858.506 510.739 864.054 544.061C868.149 568.658 865.838 593.113 859.254 617.153C857.852 622.274 856.756 627.499 855.026 632.507C853.039 638.26 853.935 643.193 857.48 648.05C873.181 669.561 888.784 691.144 904.396 712.721C906.818 716.069 909.548 719.241 911.093 723.144C913.375 728.907 911.21 735.678 906.175 738.721C900.813 741.961 894.505 741.168 890.883 735.97C872.844 710.075 853.986 684.753 836.519 658.454C829.124 647.32 827.823 635.684 831.204 622.943C836.765 601.985 841.539 580.852 839.98 558.91C838.851 543.019 836.381 527.286 834.079 511.537C830.981 490.348 827.961 469.146 824.606 447.998C823.149 438.816 818.229 434.694 810.534 435.09C802.795 435.487 796.513 441.877 795.814 450.223C795.036 459.513 796.626 468.713 797.387 477.909C798.766 494.587 799.564 511.288 800.476 527.987C800.81 534.109 797.849 538.489 792.965 541.852C787.434 545.661 782.133 549.747 777.296 554.44C764.459 566.892 758.076 582.102 757.654 599.861C757.537 604.787 757.877 609.723 757.786 614.65C757.675 620.65 754.485 624.871 749.237 625.884C743.472 626.997 739.696 623.939 737.406 619.137C733.852 611.681 732.745 603.597 733.631 595.502C736.679 567.641 749.048 544.886 771.965 528.307C776.272 525.191 776.982 520.893 777.097 516.389C777.399 504.553 775.77 492.833 774.466 481.098C773.902 476.022 771.142 471.89 768.636 467.167Z" fill="white"/>
<path d="M492.032 182.729C493.768 173.678 499.031 169.354 506.793 170.078C513.579 170.711 517.967 176.199 517.977 184.35C518.012 210.512 518.008 236.675 517.959 262.837C517.944 270.766 512.151 277.051 505.121 277C497.88 276.946 492.06 270.876 492.038 262.932C491.965 236.376 492.017 209.82 492.032 182.729Z" fill="white"/>
<path d="M406.398 234.178C402.552 228.661 398.744 223.622 395.347 218.322C391.229 211.897 392.671 204.794 398.57 200.617C404.501 196.418 412.011 197.224 416.443 203.382C431.284 224 445.929 244.761 460.421 265.624C464.883 272.048 463.363 278.958 457.342 283.282C451.234 287.669 443.786 286.788 439.083 280.329C428.07 265.204 417.417 249.82 406.398 234.178Z" fill="white"/>
<path d="M594.197 207.211C599.694 199.697 603.993 197.759 610.268 199.709C619.482 202.573 622.896 211.846 617.261 219.897C603.157 240.046 588.883 260.08 574.516 280.046C570.002 286.32 562.369 287.722 556.809 283.84C550.838 279.673 549.07 271.976 553.395 265.617C564.569 249.189 576.073 232.982 587.458 216.696C589.599 213.634 591.797 210.611 594.197 207.211Z" fill="white"/>
</mask>
<g mask="url(#mask0_2527_2)">
<rect width="1000" height="1000" fill="url(#paint0_linear_2527_2)"/>
</g>
<defs>
<linearGradient id="paint0_linear_2527_2" x1="500" y1="0" x2="500" y2="1000" gradientUnits="userSpaceOnUse">
<stop stop-color="#FFA100"/>
<stop offset="1" stop-color="#EE6300"/>
</linearGradient>
</defs>
</svg>
